<?xml version="1.0" standalone="no"?><!DOCTYPE svg PUBLIC "-//W3C//DTD SVG 1.1//EN" "http://www.w3.org/Graphics/SVG/1.1/DTD/svg11.dtd"><svg class="icon" width="132px" height="115.73px" viewBox="0 0 1168 1024" version="1.1" xmlns="http://www.w3.org/2000/svg"><path fill="#d4237a" d="M1103.122028 553.003268A287.253634 287.253634 0 0 1 1168.225352 735.549296c0 159.311324-129.13938 288.450704-288.450704 288.450704-69.257014 0-132.831549-24.417352-182.546028-65.103324l111.933295-111.947718h32.508395v36.892845c0 12.302423 4.470986 22.58569 13.557183 30.229634 7.326648 5.898817 15.619606 8.970817 24.330817 8.970817a38.940845 38.940845 0 0 0 15.720563-3.389296c13.528338-6.31707 21.604958-17.826254 22.556845-31.945916l0.100958-2.870084v-37.873578h66.531155c6.648789 0 12.504338-1.096113 17.739718-3.648901 15.634028-6.692056 24.69138-24.489465 20.955944-42.056113-4.168113-17.047437-17.912789-28.801803-34.498704-29.883493l-2.509521-0.072112h-68.218592v-24.850029h66.920563c2.134535-0.028845 3.533521-0.100958 5.379606-0.28845l2.091268-0.288451a36.74862 36.74862 0 0 0 24.489464-15.071549c6.172845-8.595831 8.523718-19.355042 6.345916-29.63831-4.009465-17.739718-18.302197-29.277746-36.128451-30.301747l-1.730704-0.05769 117.832113-117.803267zM879.774648 447.098592c69.257014 0 132.831549 24.417352 182.546028 65.103323l-62.593803 62.608226c-4.990197-5.336338-11.538028-9.201577-18.980056-10.975549-13.787944-3.18738-26.840338 0.721127-37.109183 10.788056-6.057465 6.014197-12.201465 12.11493-18.633916 18.460845-12.547606 12.40338-21.518423 21.244394-41.392676 40.758084l-3.634479 3.562367-62.997633-61.786141-0.67786-0.677859a49.685634 49.685634 0 0 0-5.480563-4.773859 38.017803 38.017803 0 0 0-55.425803 10.542873c-8.855437 15.331155-6.605521 32.897803 4.845972 45.618479l1.87493 1.961464 43.368563 42.503212h-30.330592c-20.220394 0-36.864 13.845634-39.041802 33.662197-1.283606 10.975549 1.947042 21.778028 9.288112 29.825803 6.807437 7.499718 16.384 11.754366 26.869183 12.40338l2.884507 0.100958h52.570141l-24.503887 24.503887h-28.412394c-9.028507 0-16.946479 2.350873-23.566423 7.312225l-2.422986 1.975888c-11.826479 9.547718-16.585915 26.768225-10.816901 41.681126 1.254761 3.374873 2.942197 6.490141 5.004619 9.273691l-86.578478 86.564056A287.253634 287.253634 0 0 1 591.323944 735.549296c0-159.311324 129.13938-288.450704 288.450704-288.450704z m129.802817-118.466705v70.42524A359.698028 359.698028 0 0 0 879.774648 374.985915c-199.131944 0-360.56338 161.431437-360.56338 360.563381 0 35.046761 5.00462 68.939718 14.336 100.972169L86.535211 836.507042a86.535211 86.535211 0 0 1-86.535211-86.535211V328.631887h1009.577465zM360.56338 605.746479H158.647887a43.267606 43.267606 0 0 0 0 86.535211h201.915493a43.267606 43.267606 0 0 0 0-86.535211zM923.042254 0a86.535211 86.535211 0 0 1 86.535211 86.535211v92.722479H0V86.535211a86.535211 86.535211 0 0 1 86.535211-86.535211h836.507043z"  /></svg>