<?xml version="1.0" standalone="no"?><!DOCTYPE svg PUBLIC "-//W3C//DTD SVG 1.1//EN" "http://www.w3.org/Graphics/SVG/1.1/DTD/svg11.dtd"><svg class="icon" width="132px" height="132.00px" viewBox="0 0 1024 1024" version="1.1" xmlns="http://www.w3.org/2000/svg"><path d="M31.744 512c0 265.216 215.04 480.256 480.256 480.256s480.256-215.04 480.256-480.256S777.216 31.744 512 31.744 31.744 246.784 31.744 512z" fill="#FFEBEB" /><path d="M522.24 315.392l186.368 191.488h91.136L522.24 221.184 244.736 506.88h91.136L522.24 315.392z m14.336 246.784c-20.48-7.168-29.696-13.312-29.696-20.48s5.12-14.336 20.48-14.336c17.408 0 28.672 5.12 34.816 8.192l7.168-27.648c-8.192-4.096-19.456-7.168-35.84-8.192v-21.504h-23.552V501.76c-25.6 5.12-40.96 21.504-40.96 43.008 0 23.552 17.408 35.84 44.032 45.056 18.432 6.144 25.6 12.288 25.6 21.504 0 9.216-9.216 15.36-23.552 15.36-15.36 0-29.696-5.12-40.96-10.24l-7.168 28.672c9.216 5.12 25.6 9.216 40.96 10.24v23.552H532.48v-24.576c27.648-5.12 43.008-23.552 43.008-45.056 1.024-23.552-10.24-36.864-38.912-47.104zM706.56 710.656h-3.072V519.168L522.24 332.8l-180.224 184.32v193.536H337.92c-16.384 0-29.696 13.312-29.696 30.72v2.048H737.28v-2.048c-1.024-17.408-14.336-30.72-30.72-30.72z m-184.32-19.456c-62.464 0-113.664-51.2-113.664-113.664s51.2-113.664 113.664-113.664 113.664 51.2 113.664 113.664-51.2 113.664-113.664 113.664z" fill="#ED785D" /></svg>