<?xml version="1.0" standalone="no"?><!DOCTYPE svg PUBLIC "-//W3C//DTD SVG 1.1//EN" "http://www.w3.org/Graphics/SVG/1.1/DTD/svg11.dtd"><svg class="icon" width="132px" height="132.00px" viewBox="0 0 1024 1024" version="1.1" xmlns="http://www.w3.org/2000/svg"><path d="M572.8 955.2c-19.2 0-33.6-14.4-33.6-33.6v-44.8h-65.6c-19.2 0-33.6-14.4-33.6-33.6 0-19.2 14.4-33.6 33.6-33.6h65.6v-33.6h-65.6c-19.2 0-33.6-14.4-33.6-33.6 0-19.2 14.4-33.6 33.6-33.6h41.6l-33.6-33.6c-12.8-12.8-12.8-35.2 0-48 6.4-6.4 14.4-9.6 24-9.6s17.6 3.2 24 9.6l43.2 43.2 43.2-43.2c6.4-6.4 14.4-9.6 24-9.6s17.6 3.2 24 9.6c12.8 12.8 12.8 35.2 0 48l-33.6 33.6H672c19.2 0 33.6 14.4 33.6 33.6 0 19.2-14.4 33.6-33.6 33.6h-65.6v33.6H672c19.2 0 33.6 14.4 33.6 33.6 0 19.2-14.4 33.6-33.6 33.6h-65.6v44.8c0 19.2-14.4 33.6-33.6 33.6z" fill="#F4BF24" /><path d="M923.2 433.6L604.8 104C579.2 78.4 545.6 64 510.4 64s-68.8 14.4-94.4 40l-28.8 28.8c-4.8-3.2-11.2-4.8-17.6-4.8H196.8C177.6 128 160 144 160 164.8V368l-62.4 65.6c-38.4 40-33.6 73.6-27.2 89.6 6.4 16 27.2 43.2 83.2 43.2h9.6v358.4c0 19.2 16 35.2 35.2 35.2h190.4c19.2 0 36.8-16 36.8-36.8 0-19.2-16-36.8-36.8-36.8h-153.6V564.8H784v323.2h-25.6c-19.2 0-36.8 16-36.8 36.8 0 19.2 16 36.8 36.8 36.8h60.8c19.2 0 35.2-16 35.2-35.2V564.8h9.6c56 0 76.8-27.2 83.2-43.2 9.6-16 14.4-48-24-88zM233.6 200h89.6l-89.6 92.8v-92.8z m633.6 292.8H155.2c-4.8 0-9.6 0-12.8-1.6 1.6-3.2 4.8-6.4 8-9.6L467.2 153.6c11.2-11.2 27.2-17.6 43.2-17.6 16 0 32 6.4 43.2 17.6l316.8 329.6c3.2 3.2 6.4 6.4 8 9.6h-11.2z" fill="#33334B" /></svg>