<?xml version="1.0" standalone="no"?><!DOCTYPE svg PUBLIC "-//W3C//DTD SVG 1.1//EN" "http://www.w3.org/Graphics/SVG/1.1/DTD/svg11.dtd"><svg class="icon" width="132px" height="132.00px" viewBox="0 0 1024 1024" version="1.1" xmlns="http://www.w3.org/2000/svg"><path d="M655.449 553.29h-3.355a112.394 112.394 0 0 1-80.988-37.532L447.258 377.489a35.548 35.548 0 0 1-8.098-34.766 34.567 34.567 0 0 1 25.875-22.715 34.173 34.173 0 0 1 33.383 11.262l108.246 120.492 21.332 26.271c13.359 15.195 36.043 17.84 52.543 6.121 16.59-11.484 22.512-33.246 14.023-51.551a41.561 41.561 0 0 1-2.172-4.152l-0.988-2.567-1.582-1.972-1.977-2.371-1.379-1.383-39.507-43.458-189.43-205.824c-18.172-15.407-160.589-127.407-310.711-24.098C-13.773 258.184 34.227 443.071 95.855 529.391l23.11 31.802c52.937 71.108 210.566 228.737 309.527 325.723 45.485 44.718 118.207 45.418 164.543 1.582L404.395 687.61c-13.231-14.146-12.704-36.277 1.183-49.777a34.36 34.36 0 0 1 24.742-9.672 34.383 34.383 0 0 1 24.246 10.854l188.442 200.492c19.754-19.75 41.285-41.085 62.617-62.613L522.516 582.13c-11.676-14.293-10.473-35.145 2.766-48 13.234-12.743 34.172-12.743 47.406 0L754.61 727.508c19.754-21.531 40.891-42.468 59.258-62.613l-113.379-120.69a111.196 111.196 0 0 1-45.234 9.479l0.194-0.394z m0 0" fill="#1D92FF" /><path d="M876.917 146.508c-160.59-111.211-312.688 25.875-312.688 25.875l-5.133 5.531 182.516 197.528c30.73 33.515 35.488 83.351 11.652 122.074L861.51 612.87c17.582-19.754 32-37.53 42.668-51.75a1920.416 1920.416 0 0 0 23.309-31.604c62.219-85.728 110.023-271.406-50.57-382.613v-0.395z" fill="#FF9E12" /></svg>