<?xml version="1.0" standalone="no"?><!DOCTYPE svg PUBLIC "-//W3C//DTD SVG 1.1//EN" "http://www.w3.org/Graphics/SVG/1.1/DTD/svg11.dtd"><svg class="icon" width="132px" height="132.00px" viewBox="0 0 1024 1024" version="1.1" xmlns="http://www.w3.org/2000/svg"><path d="M511.952 929.536a417.952 417.952 0 0 1-101.856-12.56 418.912 418.912 0 0 1-179.664-96.032 418.432 418.432 0 0 1-78.032-95.088A419.888 419.888 0 0 1 100.8 592.112 418.944 418.944 0 0 1 117.28 369.12a418.88 418.88 0 0 1 113.168-169.392 420.288 420.288 0 0 1 102.288-68.336 419.36 419.36 0 0 1 300.912-22.208 418.992 418.992 0 0 1 202.368 135.2 419.6 419.6 0 0 1 90.608 204.448 418.832 418.832 0 0 1-13.504 183.2 420.688 420.688 0 0 1-41.6 93.824 420.032 420.032 0 0 1-93.6 108.528 419.568 419.568 0 0 1-204.448 90.608 418.768 418.768 0 0 1-61.504 4.544z" fill="#ECF1FF" /><path d="M800.368 847.696V606.928a79.104 79.104 0 0 0-7.68-33.952 81.424 81.424 0 0 0-8-13.344 81.184 81.184 0 0 0-13.424-14.08 78.032 78.032 0 0 0-16.416-10.416 79.6 79.6 0 0 0-33.952-7.68h-15.872a79.104 79.104 0 0 0-30.384 6.096 79.6 79.6 0 0 0-49.072 73.376v18.352a68.88 68.88 0 0 1-21.184 46.544 68.512 68.512 0 0 1-40.912 18.72 68.672 68.672 0 0 1-75.168-65.264V457.44h-29.136v167.84a96.848 96.848 0 0 0 5.12 27.504 99.392 99.392 0 0 0 10.08 21.04 97.312 97.312 0 0 0 25.568 27.024 98.976 98.976 0 0 0 24.832 12.864 98.064 98.064 0 0 0 59.84 1.44 98.064 98.064 0 0 0 46.496-30.064 97.28 97.28 0 0 0 18.432-32.304 98.72 98.72 0 0 0 5.12-27.504v-18.352a49.76 49.76 0 0 1 3.856-19.248 50.48 50.48 0 0 1 27.248-27.2 50.192 50.192 0 0 1 19.264-3.84h15.872a50.384 50.384 0 0 1 50.368 50.368v240.688h29.104z" fill="#FF9700" /><path d="M459.968 457.44h29.12v12.96h-29.12v-12.96z" fill="#FF9E29" /><path d="M459.968 470.384h29.12v10.48h-29.12v-10.48z" fill="#F58700" /><path d="M507.152 443.76l2.896-9.024h-70.736l2.912 9.024v1.456l6.544 20.096a7.264 7.264 0 0 0 6.992 5.088h37.84a7.2 7.2 0 0 0 5.968-3.04 7.216 7.216 0 0 0 1.024-2.048l6.56-20.096v-1.456z" fill="#195AC0" /><path d="M545.232 446.848a7.088 7.088 0 0 0 2.72-3.52l6.976-19.648a11.52 11.52 0 0 1 7.44-6.912 11.52 11.52 0 0 1 3.456-0.512h220.032a22.24 22.24 0 0 0 15.616-6.496 22.72 22.72 0 0 0 4.8-7.168 21.984 21.984 0 0 0 1.664-8.464V124.384a28.736 28.736 0 0 0-3.424-13.712 29.104 29.104 0 0 0-25.616-15.392H163.328a22.208 22.208 0 0 0-22.512 21.696v276.56a22.24 22.24 0 0 0 22.512 22.72H383.52a11.52 11.52 0 0 1 9.152 4.384 11.52 11.52 0 0 1 1.744 3.04l6.976 19.632a7.2 7.2 0 0 0 6.976 4.8h132.608a7.104 7.104 0 0 0 4.256-1.264z" fill="#386BF3" /><path d="M182.192 375.152a14.432 14.432 0 0 0 10.288 4.272h191.568a47.728 47.728 0 0 1 25.84 7.392 47.84 47.84 0 0 1 17.824 20.112 7.68 7.68 0 0 0 6.848 4.368h40.608V46.224H192.496a14.544 14.544 0 0 0-14.56 14.56v304.08a14.416 14.416 0 0 0 4.256 10.288z" fill="#FFD400" /><path d="M766.896 50.496a14.416 14.416 0 0 0-10.256-4.272H474.096v365.072h40.464a7.728 7.728 0 0 0 6.848-4.512 48.336 48.336 0 0 1 43.664-27.36H756.64a14.48 14.48 0 0 0 12.112-6.464 14.576 14.576 0 0 0 2.448-8.096V60.784a14.432 14.432 0 0 0-4.304-10.288z" fill="#FF9700" /><path d="M547.712 201.088h123.888a13.968 13.968 0 0 1 13.968 14.048v0.432a13.984 13.984 0 0 1-13.968 14.048h-123.888a13.968 13.968 0 0 1-13.968-14.048v-0.432a14.112 14.112 0 0 1 6.192-11.664 14.016 14.016 0 0 1 7.776-2.384z" fill="#D9DDFC" /><path d="M244.464 263.536h66.816a14.032 14.032 0 0 1 12.912 8.624 13.952 13.952 0 0 1 1.056 5.344v0.432a13.92 13.92 0 0 1-8.624 12.912 14.032 14.032 0 0 1-5.344 1.056h-66.816a13.92 13.92 0 0 1-12.912-8.624 13.856 13.856 0 0 1-1.056-5.344v-0.432a13.904 13.904 0 0 1 8.624-12.896 14.032 14.032 0 0 1 5.344-1.072zM273.408 201.088h151.232a13.952 13.952 0 0 1 14 13.968v0.432a13.92 13.92 0 0 1-8.624 12.896 13.92 13.92 0 0 1-5.344 1.072h-151.264a13.904 13.904 0 0 1-12.912-8.624 14.032 14.032 0 0 1-1.056-5.344v-0.432a14.032 14.032 0 0 1 8.624-12.912 13.952 13.952 0 0 1 5.344-1.056zM250.704 131.952h113.248a13.936 13.936 0 0 1 13.968 13.968v0.432a14.032 14.032 0 0 1-6.208 11.616 13.872 13.872 0 0 1-7.76 2.352h-113.248a13.92 13.92 0 0 1-12.896-8.624 13.888 13.888 0 0 1-1.072-5.344V145.92a13.92 13.92 0 0 1 8.624-12.896 13.984 13.984 0 0 1 5.344-1.072z" fill="#EDEFFD" /><path d="M586.528 131.952h94.832a13.968 13.968 0 0 1 13.712 11.312 14.112 14.112 0 0 1 0.256 2.736v0.432a14.112 14.112 0 0 1-6.192 11.664 13.952 13.952 0 0 1-7.776 2.4h-94.832a13.968 13.968 0 0 1-13.968-14.064v-0.432a13.872 13.872 0 0 1 4.08-9.92 13.952 13.952 0 0 1 9.888-4.128zM713.152 268.704a14.448 14.448 0 0 0-8.144-5.168h-94.528a14.416 14.416 0 0 0-9.488 7.232 14.72 14.72 0 0 0 0 14.208 14.8 14.8 0 0 0 4.992 5.344 14.48 14.48 0 0 0 4.512 1.888h94.512a14.48 14.48 0 0 0 10.496-9.488 14.688 14.688 0 0 0-0.992-11.952 14.688 14.688 0 0 0-1.36-2.064z" fill="#D9DDFC" /><path d="M770.832 94.832v270.016a14.48 14.48 0 0 1-6.464 12.112 14.576 14.576 0 0 1-8.096 2.448h-152.56c-6.56 12.672-13.776 24.96-21.68 36.832h203.792a22.432 22.432 0 0 0 10.448-2.624 22.672 22.672 0 0 0 6.688-5.504 22.24 22.24 0 0 0 4.992-14.08V124.384a29.136 29.136 0 0 0-29.696-29.552h-7.424z" fill="#195AC0" /><path d="M771.248 60.8v34.048H632.96a333.696 333.696 0 0 0-17.76-48.624h141.344a14.528 14.528 0 0 1 14.704 14.56z" fill="#D87B20" /><path d="M704.944 263.536a14.464 14.464 0 0 1 10.496 9.392 14.56 14.56 0 0 1-10.496 18.992h-68.224a376.48 376.48 0 0 1-32.576 87.344h152.544a14.48 14.48 0 0 0 12.112-6.464 14.576 14.576 0 0 0 2.448-8.096V94.832l-138.72-1.6c3.632 12.736 6.512 25.632 8.624 38.704h40c3.856 0 3.2 5.6 6 8.336 2.8 2.736-1.872 1.888-1.872 5.744s8.896 6.4 6.16 9.2a14.416 14.416 0 0 1-10.288 4.256h-35.952c1.488 13.856 2.24 27.76 2.272 41.696l25.232 1.248c3.856 0 3.2 5.024 5.92 7.76 2.72 2.736 1.76 1.488 1.76 5.36 0 3.872 2.016 4.384-0.72 7.12-2.736 2.736-4.096 6.704-8 6.704h-25.392c-0.64 11.456-1.888 22.848-3.728 34.176h62.4z" fill="#D87B20" /><path d="M685.776 214.912a14.64 14.64 0 0 1-6.56 12.224 14.72 14.72 0 0 1-8.16 2.48h-24.72c0.88-9.408 1.184-18.928 1.184-28.528h24.576a14.8 14.8 0 0 1 11.152 6.368 14.8 14.8 0 0 1 2.528 7.456zM695.232 145.936a14.464 14.464 0 0 1-6.464 12.112 14.544 14.544 0 0 1-8.096 2.448h-35.36c-0.88-9.6-2.336-19.072-4.08-28.384h40a14.528 14.528 0 0 1 13.968 13.824h0.032zM719.056 277.664a14.464 14.464 0 0 1-6.464 12.112 14.56 14.56 0 0 1-8.096 2.448h-67.824c2.32-9.712 4.224-19.168 5.68-28.384h62.592a14.624 14.624 0 0 1 12.848 8.576 14.656 14.656 0 0 1 1.264 5.248z" fill="#C1C8FD" /><path d="M474.496 46.224h22.4v365.072h-22.4V46.224z" fill="#D87B20" /><path d="M200.208 46.224v333.2h-7.712a14.48 14.48 0 0 1-12.112-6.464 14.576 14.576 0 0 1-2.448-8.096V60.784a14.464 14.464 0 0 1 6.464-12.112 14.528 14.528 0 0 1 8.096-2.448h7.712zM688.432 890.496a87.12 87.12 0 0 0 14.72 48.528 84.704 84.704 0 0 0 7.904 10.128 87.36 87.36 0 0 0 64.72 28.688h20.08a86.976 86.976 0 0 0 37.344-8.384 87.36 87.36 0 0 0 50-78.96v-107.568a58.096 58.096 0 0 0-21.28-45.008 58.496 58.496 0 0 0-25.6-12.096 58.032 58.032 0 0 0-11.344-1.12h-78.32a58.096 58.096 0 0 0-45.008 21.28 58.352 58.352 0 0 0-13.216 36.96v107.552z" fill="#FF9700" /><path d="M771.248 835.28v-18.56h-82.8v-33.776a58.144 58.144 0 0 1 58.224-58.224h78.288a58.656 58.656 0 0 1 22.288 4.416 58.096 58.096 0 0 1 35.952 53.808v33.776h-82.752v18.56h-29.2z" fill="#D87B20" /><path d="M785.52 788.16h0.576a19.36 19.36 0 0 1 9.28 2.32 19.824 19.824 0 0 1 8.88 9.808 19.616 19.616 0 0 1 1.504 7.52v18.048a19.888 19.888 0 0 1-3.312 10.928 19.68 19.68 0 0 1-16.336 8.736h-0.592a19.36 19.36 0 0 1-10.928-3.312 19.424 19.424 0 0 1-7.232-8.832 19.808 19.808 0 0 1-1.488-7.52v-18.048a19.84 19.84 0 0 1 4.464-12.464 19.6 19.6 0 0 1 15.184-7.184z" fill="#195AC0" /></svg>