<?xml version="1.0" standalone="no"?><!DOCTYPE svg PUBLIC "-//W3C//DTD SVG 1.1//EN" "http://www.w3.org/Graphics/SVG/1.1/DTD/svg11.dtd"><svg class="icon" width="132px" height="132.00px" viewBox="0 0 1024 1024" version="1.1" xmlns="http://www.w3.org/2000/svg"><path fill="#d4237a" d="M864 128H160.064A128 128 0 0 0 32 256v512a128 128 0 0 0 128.064 128H864a128 128 0 0 0 128-128V256a128 128 0 0 0-128-128z m63.936 640c0 35.392-28.544 64-63.936 64H160.064A64 64 0 0 1 96 768V256a64 64 0 0 1 64.064-64H864c35.392 0 63.936 28.608 63.936 64v512z m-248.96-462.656a32.448 32.448 0 0 0-22.912-9.344 32 32 0 0 0-22.912 9.344L472.96 463.68a31.744 31.744 0 0 0 22.016 53.952c-1.92 1.152-4.096 1.984-5.824 3.648L384 626.368V320a32 32 0 1 0-64 0v306.368L214.976 521.28a32.32 32.32 0 0 0-45.76 45.696l159.936 159.744a31.36 31.36 0 0 0 22.848 9.344 31.808 31.808 0 0 0 22.976-9.344l159.68-159.744a32.32 32.32 0 0 0-22.272-54.08c2.176-1.152 4.48-2.176 6.336-3.904L624 404.864v303.552c0 17.6 14.4 31.744 32.064 31.744a31.808 31.808 0 0 0 32.064-31.744V404.864l105.344 104.128a32.64 32.64 0 0 0 44.8-1.024 31.872 31.872 0 0 0 0.96-44.288l-160.256-158.336z"  /></svg>