<?xml version="1.0" standalone="no"?><!DOCTYPE svg PUBLIC "-//W3C//DTD SVG 1.1//EN" "http://www.w3.org/Graphics/SVG/1.1/DTD/svg11.dtd"><svg class="icon" width="132px" height="131.87px" viewBox="0 0 1025 1024" version="1.1" xmlns="http://www.w3.org/2000/svg"><path fill="#d4237a" d="M981.657 313.583c-25.675-60.702-62.423-115.212-109.225-162.014-46.803-46.802-101.312-83.552-162.015-109.227-62.859-26.588-129.617-40.067-198.416-40.067s-135.555 13.481-198.415 40.068c-60.703 25.675-115.212 62.425-162.013 109.227-46.803 46.802-83.554 101.312-109.227 162.014-26.588 62.86-40.069 129.618-40.069 198.417 0 25.429 1.893 50.98 5.622 75.943 2.426 16.234 17.558 27.428 33.79 25.002 16.234-2.427 27.427-17.555 25.002-33.788-3.299-22.065-4.97-44.659-4.97-67.157 0-248.287 201.995-450.285 450.281-450.285s450.283 201.997 450.283 450.285-201.997 450.283-450.283 450.283c-123.035 0-237.937-48.692-323.536-137.109-11.419-11.793-30.236-12.097-42.028-0.679s-12.097 30.235-0.681 42.028c47.018 48.564 102.181 86.745 163.958 113.481 63.97 27.685 132.030 41.724 202.286 41.724 68.799 0 135.557-13.482 198.417-40.068 60.703-25.675 115.212-62.423 162.015-109.226 46.801-46.802 83.549-101.311 109.225-162.013 26.588-62.861 40.068-129.618 40.068-198.418s-13.483-135.556-40.070-198.417zM84.182 684.514c-24.399 0-44.251 19.85-44.251 44.246 0 24.399 19.852 44.247 44.251 44.247 24.396 0 44.243-19.85 44.243-44.247-0.001-24.399-19.849-44.246-44.243-44.246zM468.614 249.3c-12.445-11.021-31.461-9.868-42.482 2.574l-163.635 184.749c-11.019 12.441-9.865 31.46 2.576 42.48 5.728 5.072 12.848 7.567 19.94 7.567 8.315 0 16.593-3.428 22.54-10.142l14.24-16.077v94.657c0 16.621 13.473 30.094 30.094 30.094h92.844l-152.319 145.187c-12.031 11.467-12.486 30.516-1.020 42.546 5.915 6.206 13.844 9.331 21.789 9.331 7.459 0 14.934-2.758 20.757-8.31l198.025-188.754h155.989c16.621 0 30.092-13.473 30.092-30.094v-116.127c0-16.621-13.472-30.094-30.092-30.094h-91.943l48.413-59.428c7.337-9.005 8.836-21.43 3.851-31.922s-15.565-17.179-27.182-17.179h-157.502l7.598-8.578c11.022-12.441 9.867-31.46-2.573-42.48zM489.825 525.015h-107.844v-55.94h107.844v55.94zM657.858 525.015h-107.845v-55.94h107.845v55.94zM557.759 360.547l-39.38 48.34h-150.913l42.815-48.34h147.478zM547.191 611.23c-16.621 0-30.094 13.475-30.094 30.094v95.013c0 16.62 13.473 30.094 30.094 30.094h191.786c16.621 0 30.094-13.473 30.094-30.094s-13.473-30.094-30.094-30.094h-161.692v-64.919c0-16.62-13.473-30.094-30.094-30.094z"  /></svg>