<?xml version="1.0" standalone="no"?><!DOCTYPE svg PUBLIC "-//W3C//DTD SVG 1.1//EN" "http://www.w3.org/Graphics/SVG/1.1/DTD/svg11.dtd"><svg class="icon" width="132px" height="132.00px" viewBox="0 0 1024 1024" version="1.1" xmlns="http://www.w3.org/2000/svg"><path fill="#d4237a" d="M1019.346058 852.496784c0-70.177735-59.934276-118.101053-73.592221-190.006116s-102.675609-289.307409-147.345123-342.372542a438.219179 438.219179 0 0 0-270.46748-152.366426v-85.563008A82.148522 82.148522 0 0 0 445.913224 0H86.42808A82.148522 82.148522 0 0 0 4.279559 82.148522v638.709776a82.148522 82.148522 0 0 0 82.148521 82.148521h359.485144a68.691429 68.691429 0 0 0 25.668903-5.141814 17.032261 17.032261 0 0 0 8.5563-25.668903 18.719419 18.719419 0 0 0-20.527087-6.828972 47.401103 47.401103 0 0 1-15.425444 1.727328h-229.373134V34.265374h231.100462a47.923318 47.923318 0 0 1 47.923319 47.923318v301.278196a17.112602 17.112602 0 1 0 34.225203 0V299.591038a433.318387 433.318387 0 0 1 157.548411 118.181394c30.810717 46.236161 22.254416 128.545364-13.698115 136.940983a74.998186 74.998186 0 0 1-68.289725-13.698115c-35.952531-24.102256-83.87585-109.544752-135.253825-130.112011s-85.603178 27.396231-59.934275 99.301294 58.206948 135.253825 95.846636 239.656762a338.717033 338.717033 0 0 0 162.609886 188.318958c41.094346 15.425444 37.67986 85.603178 121.555709 85.603178a237.849093 237.849093 0 0 0 230.89961-171.286697zM375.73549 106.130266a17.112602 17.112602 0 1 0-34.225203 0v237.969605a17.112602 17.112602 0 0 0 34.225203 0z" /></svg>