<?xml version="1.0" standalone="no"?><!DOCTYPE svg PUBLIC "-//W3C//DTD SVG 1.1//EN" "http://www.w3.org/Graphics/SVG/1.1/DTD/svg11.dtd"><svg class="icon" width="132px" height="132.00px" viewBox="0 0 1024 1024" version="1.1" xmlns="http://www.w3.org/2000/svg"><path d="M0.153813 0h1024v1024H0.153813z" fill="#FFFFFF" /><path d="M371.14048 301.013333c57.386667 8.106667 99.626667-28.586667 111.146667-99.626666a100.906667 100.906667 0 0 0-23.466667-78.506667A106.666667 106.666667 0 0 0 384.153813 85.333333a108.373333 108.373333 0 0 0-116.266666 98.986667c-5.12 59.733333 44.586667 108.373333 103.253333 116.693333zM784.793813 619.733333a82.986667 82.986667 0 0 0 52.693334-35.84 79.786667 79.786667 0 0 0 10.88-61.653333 85.333333 85.333333 0 0 0-99.413334-65.706667c-45.013333 8.96-88.106667 57.173333-78.293333 102.186667s69.12 69.546667 114.133333 61.013333zM444.10048 573.866667c30.293333-128 106.666667-23.466667 150.826667 9.386666a40.106667 40.106667 0 0 0 25.386666 9.6 11.946667 11.946667 0 0 0 7.893334-4.906666 10.666667 10.666667 0 0 0 1.493333-8.746667 151.04 151.04 0 0 0-10.88-22.826667c-48.64-96.426667-128-204.586667-277.333333-217.386666-212.266667-4.693333-315.733333 197.973333-315.733334 197.973333-46.933333 99.626667-21.333333 120.106667 10.453334 83.626667 108.16-128 144.853333-123.093333 144.853333-87.253334-7.253333 205.653333 48.853333 341.333333 95.146667 399.36a16.64 16.64 0 0 0 18.56 4.906667 15.786667 15.786667 0 0 0 10.24-16 883.413333 883.413333 0 0 1-4.266667-99.413333 65.706667 65.706667 0 0 1 0-9.173334c8.746667-61.44 62.72-49.28 114.986667 0 61.653333 58.666667 90.026667 90.88 133.333333 109.226667a60.373333 60.373333 0 0 0 27.093333 7.253333c13.013333 0 11.52-15.573333 5.546667-22.826666-133.546667-161.706667-151.68-236.16-137.6-332.8z" fill="#FF7C33" /><path d="M1002.82048 573.866667c-42.666667 15.146667-119.04 59.093333-216.32 71.253333-130.56 15.146667-208.853333-7.04-253.653333-1.493333a11.306667 11.306667 0 0 0-9.386667 7.68 12.16 12.16 0 0 0 1.92 11.946666c37.546667 40.32 121.173333 51.2 140.373333 65.493334 27.093333 20.053333 10.666667 49.493333 21.333334 112.426666 8.746667 50.346667 20.053333 68.906667 33.28 81.92s26.026667 6.613333 26.026666-7.04c0-44.16 18.986667-76.373333 67.413334-72.746666 47.786667 7.893333 64 47.36 76.586666 76.16a12.373333 12.373333 0 0 0 11.946667 6.4 12.16 12.16 0 0 0 10.88-8.533334 175.573333 175.573333 0 0 0-3.2-96.64c-9.813333-36.906667-18.346667-62.72-14.08-89.173333a107.733333 107.733333 0 0 1 41.173333-60.586667c58.24-38.826667 76.373333-56.533333 84.266667-71.893333 8.533333-17.066667-4.053333-29.866667-18.56-25.173333z" fill="#FF7C33" /></svg>