<?xml version="1.0" standalone="no"?><!DOCTYPE svg PUBLIC "-//W3C//DTD SVG 1.1//EN" "http://www.w3.org/Graphics/SVG/1.1/DTD/svg11.dtd"><svg class="icon" width="132px" height="132.00px" viewBox="0 0 1024 1024" version="1.1" xmlns="http://www.w3.org/2000/svg"><path d="M106.666667 170.666667a42.666667 42.666667 0 0 0-42.666667 42.666666v146.261334c41.216 23.616 68.928 67.733333 68.928 118.272 0 50.56-27.733333 94.677333-68.928 118.272V742.4a42.666667 42.666667 0 0 0 42.666667 42.666667h741.738666a42.666667 42.666667 0 0 0 42.666667-42.666667v-132.309333c-59.456-15.146667-103.381333-68.608-103.381333-132.224s43.946667-117.077333 103.381333-132.224V213.333333a42.666667 42.666667 0 0 0-42.666667-42.666666H106.666667z m568.896 277.333333c3.925333 0 7.104-3.2 7.104-7.104v-49.792a7.104 7.104 0 0 0-7.104-7.104H412.437333a7.104 7.104 0 0 0-7.104 7.104v49.792c0 3.925333 3.2 7.104 7.104 7.104h263.125334z m-156.458667 298.666667a7.104 7.104 0 0 1-7.104-7.104V592.213333l-22.442667 21.674667a7.104 7.104 0 0 1-9.877333 0l-26.368-25.472a7.104 7.104 0 0 1 0-10.24l85.76-82.773333a7.104 7.104 0 0 1 9.877333 0l85.76 82.773333a7.104 7.104 0 0 1 0 10.24l-26.389333 25.472a7.104 7.104 0 0 1-9.877333 0L576 592.213333v147.328c0 3.925333-3.2 7.104-7.104 7.104h-49.792z" fill="#00ECD0" /><path d="M175.594667 238.933333a42.666667 42.666667 0 0 0-42.666667 42.666667v146.261333c41.194667 23.616 68.906667 67.733333 68.906667 118.272 0 50.538667-27.712 94.656-68.906667 118.250667V810.666667a42.666667 42.666667 0 0 0 42.666667 42.666666H917.333333a42.666667 42.666667 0 0 0 42.666667-42.666666v-146.261334c-41.216-23.616-68.928-67.733333-68.928-118.272 0-50.56 27.733333-94.677333 68.906667-118.272V281.6a42.666667 42.666667 0 0 0-42.666667-42.666667H175.616zM512 739.562667c0 3.925333 3.178667 7.104 7.104 7.104h49.770667c3.925333 0 7.125333-3.2 7.125333-7.104V592.213333l22.421333 21.674667c2.773333 2.645333 7.125333 2.645333 9.877334 0l26.389333-25.472a7.104 7.104 0 0 0 0-10.24l-85.76-82.773333a7.104 7.104 0 0 0-9.877333 0l-85.76 82.773333a7.104 7.104 0 0 0 0 10.24l26.389333 25.472c2.752 2.645333 7.125333 2.645333 9.877333 0L512 592.213333v147.328zM675.541333 448c3.925333 0 7.125333-3.2 7.125334-7.104v-49.792a7.104 7.104 0 0 0-7.125334-7.104H412.437333a7.104 7.104 0 0 0-7.104 7.104v49.792c0 3.925333 3.178667 7.104 7.104 7.104h263.104z" fill="#2A6FFE" /></svg>