<?xml version="1.0" standalone="no"?><!DOCTYPE svg PUBLIC "-//W3C//DTD SVG 1.1//EN" "http://www.w3.org/Graphics/SVG/1.1/DTD/svg11.dtd"><svg class="icon" width="132px" height="131.74px" viewBox="0 0 1026 1024" version="1.1" xmlns="http://www.w3.org/2000/svg"><path fill="#d4237a" d="M965.07264 722.112l-39.872 14.208V229.184A178.048 178.048 0 0 0 747.21664 51.2H279.63264A177.984 177.984 0 0 0 101.64864 229.12v507.136l-39.872-14.208a44.48 44.48 0 1 0-29.888 83.648L513.42464 977.728l481.536-171.968a44.48 44.48 0 1 0-29.888-83.648zM513.42464 883.392l-322.944-115.328V229.12c0-49.28 39.872-89.152 89.152-89.152h467.584c49.28 0 89.152 39.936 89.152 89.152v538.88L513.42464 883.392zM513.36064 404.48L427.47264 311.04c-16-17.472-45.184-20.16-65.088-6.016-19.84 14.08-22.912 39.68-6.848 57.152l60.928 66.24H359.18464c-25.472 0-46.208 18.176-46.208 40.64 0 22.4 20.672 40.64 46.208 40.64h107.904v59.136H359.18464c-25.472 0-46.208 18.176-46.208 40.64 0 22.464 20.672 40.704 46.208 40.704h107.904v72.704c0 22.4 20.736 40.64 46.272 40.64 25.536 0 46.208-18.24 46.208-40.64V650.24h107.968c25.472 0 46.208-18.24 46.208-40.704 0-22.4-20.736-40.64-46.272-40.64H559.56864v-59.136h107.968c25.472 0 46.208-18.24 46.208-40.64 0-22.464-20.736-40.64-46.272-40.64h-57.28l60.992-66.24c16-17.472 12.992-43.072-6.912-57.216-19.84-14.08-49.024-11.392-65.024 6.08L513.42464 404.48z" /></svg>