<?xml version="1.0" standalone="no"?><!DOCTYPE svg PUBLIC "-//W3C//DTD SVG 1.1//EN" "http://www.w3.org/Graphics/SVG/1.1/DTD/svg11.dtd"><svg class="icon" width="132px" height="132.00px" viewBox="0 0 1024 1024" version="1.1" xmlns="http://www.w3.org/2000/svg"><path d="M288 736m-256 0a256 256 0 1 0 512 0 256 256 0 1 0-512 0Z" fill="#D7F1F0" /><path d="M443.296 366.432l60.384 59.68h-62.4c-14.144 0-25.28 13.152-25.28 27.328 0 14.144 13.12 25.28 27.296 25.28h80.96v50.56h-80.96c-13.12 0-25.28 11.136-25.28 25.28-0.992 14.176 11.136 27.328 25.28 27.328h80.96v79.904c0 14.144 12.096 26.304 26.24 26.304 14.176 0 26.336-12.16 26.336-26.304v-79.904h78.88c14.176-1.024 26.304-12.16 25.28-25.28 1.024-14.176-11.104-27.328-25.28-27.328h-78.88v-50.56h78.88c14.176 0 26.304-11.136 25.28-25.28 1.024-14.176-11.104-27.328-25.28-27.328h-60l60-60.672a25.056 25.056 0 0 0 0-34.4 27.936 27.936 0 0 0-37.44-2.016l-68.768 68.8-68.8-68.8-1.984-2.016c-11.136-10.144-28.32-9.12-37.44 2.016-10.112 11.136-9.088 28.32 2.016 37.44z" fill="#666666" /><path d="M717.536 260.48l88-86.976c5.056-4.032 8.096-11.104 8.096-19.2A26.784 26.784 0 0 0 787.328 128a27.616 27.616 0 0 0-19.2 8.096l-88 86.976a26.88 26.88 0 0 0-1.024 37.44 26.88 26.88 0 0 0 37.44 0.992l0.992-0.992z" fill="#666666" /><path d="M901.376 240.064a27.616 27.616 0 0 1-8.096 19.2 26.88 26.88 0 0 1-37.44 0l-86.976-86.976a25.056 25.056 0 0 1 0-34.4c9.088-11.104 26.304-12.128 37.44-2.016l88 86.976c4.032 3.04 7.04 10.144 7.04 17.216z" fill="#666666" /><path d="M813.632 337.376c0 14.176-12.16 25.28-25.28 25.28-14.176 0-27.328-11.104-27.328-25.28V158.336c0-14.144 13.152-26.272 27.328-25.28 14.144 0 26.272 13.152 25.28 27.328v176.992z" fill="#666666" /><path d="M232 192c0-30.912 25.088-56 56-56h320a24 24 0 0 1 0 48H288a8 8 0 0 0-8 8v544c0 4.416 3.584 8 8 8h512a8 8 0 0 0 8-8v-300.8a24 24 0 0 1 48 0V736A56 56 0 0 1 800 792H288A56 56 0 0 1 232 736V192z" fill="#666666" /></svg>