<?xml version="1.0" standalone="no"?><!DOCTYPE svg PUBLIC "-//W3C//DTD SVG 1.1//EN" "http://www.w3.org/Graphics/SVG/1.1/DTD/svg11.dtd"><svg class="icon" width="132px" height="132.00px" viewBox="0 0 1024 1024" version="1.1" xmlns="http://www.w3.org/2000/svg"><path fill="#d4237a" d="M513.6 565.632l331.328 331.328a2.304 2.304 0 0 1-0.128 3.392A508.672 508.672 0 0 1 526.912 1024a2.304 2.304 0 0 1-2.304-2.048 578.688 578.688 0 0 0-141.184-325.888 2.304 2.304 0 0 1 0.128-3.2L510.4 565.76a2.304 2.304 0 0 1 3.2 0zM331.52 748.48a505.408 505.408 0 0 1 118.144 268.608 2.304 2.304 0 0 1-2.56 2.56 504.96 504.96 0 0 1-268.608-118.144 2.304 2.304 0 0 1-0.128-3.392l149.76-149.76a2.304 2.304 0 0 1 3.392 0.128z m690.496-223.872a2.304 2.304 0 0 1 2.048 2.368 508.736 508.736 0 0 1-123.136 317.184 2.304 2.304 0 0 1-1.664 0.832h-0.064a2.304 2.304 0 0 1-1.6-0.64L565.696 513.536a2.304 2.304 0 0 1 0-3.2l126.976-127.04a2.304 2.304 0 0 1 3.2-0.128 578.688 578.688 0 0 0 326.08 141.44z m-745.6 168.832c0 0.64-0.256 1.28-0.704 1.728L126.656 844.16a2.304 2.304 0 0 1-1.664 0.64 2.304 2.304 0 0 1-1.728-0.768A505.344 505.344 0 0 1 4.352 576.192a2.304 2.304 0 0 1 2.56-2.56 504.96 504.96 0 0 1 268.608 118.144 2.304 2.304 0 0 1 0.768 1.664z m51.84-52.672A578.688 578.688 0 0 0 2.048 499.392 2.304 2.304 0 0 1 0 497.024 508.736 508.736 0 0 1 123.136 179.84a2.304 2.304 0 0 1 1.664-0.832h0.064c0.64 0 1.216 0.256 1.6 0.64l331.84 330.752a2.304 2.304 0 0 1 0 3.2L331.392 640.64a2.304 2.304 0 0 1-3.2 0.128z m182.208-182.4L179.072 127.04a2.304 2.304 0 0 1 0.128-3.392A508.672 508.672 0 0 1 497.024 0h0.064c1.216 0 2.176 0.896 2.304 2.048a578.688 578.688 0 0 0 141.184 325.888 2.304 2.304 0 0 1-0.128 3.2L513.6 458.24a2.304 2.304 0 0 1-3.2 0z m237.312-128.64c0-0.64 0.192-1.216 0.64-1.664l148.992-148.992a2.304 2.304 0 0 1 3.392 0.128 505.344 505.344 0 0 1 118.144 268.608 2.304 2.304 0 0 1-2.56 2.56 504.96 504.96 0 0 1-267.84-118.912 2.304 2.304 0 0 1-0.768-1.664z m-55.168-54.208A505.408 505.408 0 0 1 574.4 6.912a2.304 2.304 0 0 1 2.56-2.56 504.96 504.96 0 0 1 268.608 118.144 2.304 2.304 0 0 1 0.128 3.392l-149.76 149.76a2.304 2.304 0 0 1-1.6 0.64h-0.128a2.304 2.304 0 0 1-1.664-0.768z"  /></svg>