<?xml version="1.0" standalone="no"?><!DOCTYPE svg PUBLIC "-//W3C//DTD SVG 1.1//EN" "http://www.w3.org/Graphics/SVG/1.1/DTD/svg11.dtd"><svg class="icon" width="132px" height="132.00px" viewBox="0 0 1024 1024" version="1.1" xmlns="http://www.w3.org/2000/svg"><path d="M782.848 641.536m-185.856 0a185.856 185.856 0 1 0 371.712 0 185.856 185.856 0 1 0-371.712 0Z" fill="#FFE200" /><path d="M194.56 156.16H128c-16.896 0-30.72-13.824-30.72-30.72s13.824-30.72 30.72-30.72h66.56c16.896 0 30.72 13.824 30.72 30.72s-13.824 30.72-30.72 30.72z" fill="#FFE200" /><path d="M509.952 471.04c-6.144 0-12.288-2.048-17.408-5.632L347.648 366.08c-13.824-9.728-17.408-28.672-8.192-42.496 9.728-13.824 28.672-17.408 42.496-8.192l128 87.552 131.584-88.064c14.336-9.216 33.28-5.632 42.496 8.704s5.632 33.28-8.704 42.496l-148.48 99.84c-5.12 3.584-10.752 5.12-16.896 5.12z" fill="#4E63DD" /><path d="M658.944 505.856H365.056c-16.896 0-30.72-13.824-30.72-30.72s13.824-30.72 30.72-30.72h293.888c16.896 0 30.72 13.824 30.72 30.72s-13.824 30.72-30.72 30.72zM658.944 630.784H365.056c-16.896 0-30.72-13.824-30.72-30.72s13.824-30.72 30.72-30.72h293.888c16.896 0 30.72 13.824 30.72 30.72s-13.824 30.72-30.72 30.72z" fill="#4E63DD" /><path d="M512 744.448c-16.896 0-30.72-13.824-30.72-30.72V475.136c0-16.896 13.824-30.72 30.72-30.72s30.72 13.824 30.72 30.72v238.592c0 16.896-13.824 30.72-30.72 30.72zM787.968 281.088c-7.68 0-15.36-3.072-21.504-8.704-71.168-69.12-164.864-107.008-264.192-107.008-95.232 0-186.368 35.328-256.512 99.84-12.288 11.264-31.744 10.752-43.52-2.048-11.264-12.288-10.752-31.744 2.048-43.52 81.408-74.752 187.392-116.224 297.984-116.224 115.2 0 224.256 44.032 307.2 124.416 12.288 11.776 12.288 31.232 0.512 43.52-5.632 6.656-13.824 9.728-22.016 9.728zM502.272 919.04c-102.4 0-201.728-35.84-280.576-100.864-13.312-10.752-14.848-30.208-4.096-43.008 10.752-13.312 30.208-14.848 43.008-4.096 67.584 55.808 153.6 86.528 241.152 86.528 96.768 0 188.928-36.352 259.584-102.4 12.288-11.776 31.744-10.752 43.52 1.536s10.752 31.744-1.536 43.52c-81.408 76.288-188.416 118.784-301.056 118.784z" fill="#4E63DD" /><path d="M304.128 322.56H182.272c-14.336 0-27.136-10.24-30.208-24.576l-20.992-99.84c-3.584-16.384 7.168-32.768 23.552-36.352 16.384-3.584 32.768 7.168 36.352 23.552L207.36 261.12h96.768c16.896 0 30.72 13.824 30.72 30.72s-13.824 30.72-30.72 30.72zM831.488 876.544c-14.336 0-27.136-9.728-30.208-24.576l-15.872-75.264h-96.768c-16.896 0-30.72-13.824-30.72-30.72s13.824-30.72 30.72-30.72h121.856c14.336 0 27.136 10.24 30.208 24.576l20.992 99.84c3.584 16.384-7.168 32.768-23.552 36.352-2.56 0-4.608 0.512-6.656 0.512zM140.8 690.176c-13.824 0-26.624-9.728-29.696-23.552l-1.536-7.168c-19.968-86.528-19.968-177.664 0-264.192l1.536-7.168c4.096-16.384 20.48-26.624 36.864-23.04 16.384 4.096 26.624 20.48 23.04 36.864l-2.048 7.168c-17.92 77.312-17.92 158.72 0 236.032l1.536 7.168c4.096 16.384-6.656 33.28-23.04 36.864-2.048 1.024-4.608 1.024-6.656 1.024zM867.328 690.176c-2.56 0-4.608-0.512-7.168-1.024-16.384-4.096-26.624-20.48-23.04-36.864l1.536-7.168c17.92-77.312 17.92-158.72 0-236.032l-1.536-7.168c-4.096-16.384 6.656-33.28 23.04-36.864 16.384-4.096 33.28 6.656 36.864 23.04l1.536 7.168c19.968 86.528 19.968 177.664 0 264.192l-1.536 7.168c-3.072 14.336-15.872 23.552-29.696 23.552z" fill="#4E63DD" /></svg>