<?xml version="1.0" standalone="no"?><!DOCTYPE svg PUBLIC "-//W3C//DTD SVG 1.1//EN" "http://www.w3.org/Graphics/SVG/1.1/DTD/svg11.dtd"><svg class="icon" width="132px" height="129.60px" viewBox="0 0 1043 1024" version="1.1" xmlns="http://www.w3.org/2000/svg"><path fill="#d4237a" d="M591.602098 496.84182c0-2.425309-3.637963-13.165962-41.576722-24.079851v62.365082c24.253087-13.685671 42.616139-28.583996 41.576722-38.285231z"  /><path fill="#d4237a" d="M1043.922179 392.726781L887.316529 121.265437l-207.883607 120.052783V0H363.796312v240.105566L155.912705 121.265437 0 392.726781l207.883607 119.359837-207.883607 119.186601 155.912705 272.154289 207.883607-120.052783v240.625275h315.63661V783.721198l207.883607 119.70631 155.912705-272.154289-207.883607-119.186601z m-465.832516 63.577736c24.426324 10.047708 36.726104 22.520724 38.111995 38.285231 1.9056 19.922179-14.898325 39.844358-51.970902 60.632719l-14.725089 7.795635v109.831839c31.70225 22.69396 45.561157 43.482321 41.923194 63.4045a47.986466 47.986466 0 0 1-27.371341 31.529014 84.192861 84.192861 0 0 1 43.309085 55.782101h-164.574522a84.192861 84.192861 0 0 1 64.79039-63.4045V675.621722c-43.655557-27.371342-63.4045-51.970902-59.246828-75.70428 5.370327-31.009305 49.718829-42.09643 58.553883-44.00203v-91.122314a178.086957 178.086957 0 0 1-160.070377-137.72289h46.600575a130.273727 130.273727 0 0 1 86.618169-69.294536s45.214684-30.316359 65.136864-3.118254a33.434613 33.434613 0 0 1 32.048723 6.409745L571.679919 259.854509l4.677381 5.023853a51.970902 51.970902 0 0 0-29.79665-2.252072A79.688716 79.688716 0 0 1 485.061749 282.721705a105.50093 105.50093 0 0 0-61.325664 44.348503h272.154289a178.779902 178.779902 0 0 1-117.800711 129.234309z"  /><path fill="#d4237a" d="M567.522247 731.57706c0-2.945018 0-11.953307-17.323634-27.544578v43.482321c9.00829-4.330908 16.284216-9.874471 17.323634-15.937743zM473.108442 603.382169c0 4.157672 0 17.323634 34.647268 42.09643v-64.963627c-12.819489 3.464727-32.741668 11.780071-34.647268 22.867197z"  /></svg>