<?xml version="1.0" standalone="no"?><!DOCTYPE svg PUBLIC "-//W3C//DTD SVG 1.1//EN" "http://www.w3.org/Graphics/SVG/1.1/DTD/svg11.dtd"><svg class="icon" width="132px" height="132.00px" viewBox="0 0 1024 1024" version="1.1" xmlns="http://www.w3.org/2000/svg"><path fill="#d4237a" d="M286.976 816.5888a93.6448 93.6448 0 0 0 53.3504-16.64L668.8256 573.44a253.8496 253.8496 0 1 0-281.6-259.9936l-217.1392 315.3408a94.1056 94.1056 0 0 0 8.8064 117.4016c-12.1344 21.1456-29.5936 61.44-16.6912 104.2432 12.3392 40.96 47.9744 71.68 105.8816 91.0336a317.0816 317.0816 0 0 0 98.8672 14.08 465.0496 465.0496 0 0 0 91.3408-9.2672c78.3872-15.872 145.2032-50.2272 188.16-96.768a30.72 30.72 0 1 0-45.1584-41.6768c-77.7216 84.224-237.7728 100.864-313.6512 75.3664-26.0096-8.704-58.624-24.5248-66.56-50.2784a63.488 63.488 0 0 1 3.4304-40.2944 93.7984 93.7984 0 0 0 62.464 23.9616z m353.792-687.6672a192.4096 192.4096 0 0 1 15.0016 384l-7.3216 0.4608H631.0912A192.9728 192.9728 0 0 1 448.4096 323.072v-1.6896a192.6144 192.6144 0 0 1 192.3584-192.4608zM220.672 663.6032l179.712-261.12a254.8224 254.8224 0 0 0 171.264 162.8672h0.4096l-266.5984 184.0128a32.4608 32.4608 0 0 1-41.728-4.0448l-39.5264-40.5504a32.6656 32.6656 0 0 1-3.5328-41.1648z"  /><path fill="#d4237a" d="M639.2832 463.4624a30.72 30.72 0 0 0 39.3216-18.432 30.72 30.72 0 0 0-18.1248-39.3216 168.3456 168.3456 0 0 1-101.7856-99.8912 30.72 30.72 0 0 0-58.8288 17.6128 230.4 230.4 0 0 0 139.4176 140.032zM396.5952 602.3168a32.8192 32.8192 0 1 0-32.8192-32.8192 32.768 32.768 0 0 0 32.8192 32.8192z"  /></svg>