<?xml version="1.0" standalone="no"?><!DOCTYPE svg PUBLIC "-//W3C//DTD SVG 1.1//EN" "http://www.w3.org/Graphics/SVG/1.1/DTD/svg11.dtd"><svg class="icon" width="132px" height="109.54px" viewBox="0 0 1234 1024" version="1.1" xmlns="http://www.w3.org/2000/svg"><path fill="#d4237a" d="M1111.125224 0h-740.793854a123.837132 123.837132 0 0 0-123.411011 123.44379v185.198464h370.396927a123.837132 123.837132 0 0 1 123.44379 123.44379v246.920358h123.44379l296.284763 148.158771c37.039693 18.519846 74.079385-12.35749 74.079385-55.559539V123.44379A123.837132 123.837132 0 0 0 1111.125224 0z"  /><path fill="#d4237a" d="M555.562612 370.364149H123.44379A123.837132 123.837132 0 0 0 0 493.807939v469.125736c0 43.202049 37.039693 74.079385 67.917029 55.559539l240.758003-92.599232h246.920359a123.837132 123.837132 0 0 0 123.44379-123.44379v-308.642253a123.837132 123.837132 0 0 0-123.44379-123.44379z"  /></svg>